<?xml version="1.0" encoding="UTF-8" standalone="no"?>
<!-- Created with Inkscape (http://www.inkscape.org/) -->

<svg
   width="8.0882492mm"
   height="8.0882721mm"
   viewBox="0 0 8.0882492 8.0882721"
   version="1.1"
   id="svg5"
   xml:space="preserve"
   inkscape:version="1.2.1 (9c6d41e410, 2022-07-14, custom)"
   sodipodi:docname="SWORD LOGO.svg"
   xmlns:inkscape="http://www.inkscape.org/namespaces/inkscape"
   xmlns:sodipodi="http://sodipodi.sourceforge.net/DTD/sodipodi-0.dtd"
   xmlns="http://www.w3.org/2000/svg"
   xmlns:svg="http://www.w3.org/2000/svg"><sodipodi:namedview
     id="namedview7"
     pagecolor="#ffffff"
     bordercolor="#999999"
     borderopacity="1"
     inkscape:showpageshadow="0"
     inkscape:pageopacity="0"
     inkscape:pagecheckerboard="0"
     inkscape:deskcolor="#d1d1d1"
     inkscape:document-units="mm"
     showgrid="false"
     inkscape:zoom="1.4948513"
     inkscape:cx="-199.68541"
     inkscape:cy="773.65555"
     inkscape:window-width="1920"
     inkscape:window-height="1012"
     inkscape:window-x="1280"
     inkscape:window-y="32"
     inkscape:window-maximized="1"
     inkscape:current-layer="layer1" /><defs
     id="defs2" /><g
     inkscape:label="Layer 1"
     inkscape:groupmode="layer"
     id="layer1"
     transform="translate(65.734018,-230.56425)"><g
       id="g3049"
       inkscape:export-filename="logo2.svg"
       inkscape:export-xdpi="96"
       inkscape:export-ydpi="96"
       transform="matrix(0.19641556,0,0,0.19641556,-49.573041,188.52765)"><circle
         style="fill:#ffffff;fill-opacity:1;stroke:none;stroke-width:0.765"
         id="path2461"
         cx="-61.689896"
         cy="234.60838"
         r="20.58964" /><g
         id="g2407"
         transform="translate(48.903632,87.167713)"><path
           style="fill:#49afe0;fill-opacity:1;stroke-width:0.264583"
           d="m -115.0877,158.62024 c -2.11737,-2.0886 -3.75459,-4.40919 -4.97623,-7.05326 -0.8875,-1.92087 -1.98238,-5.62826 -1.95582,-6.62261 0.008,-0.30002 0.24773,0.34749 0.5327,1.43889 1.09045,4.17622 3.29936,7.82051 6.69576,11.04675 1.2041,1.14378 2.01738,2.12995 2.01738,2.44624 0,0.29146 -0.11323,0.52993 -0.25163,0.52993 -0.1384,0 -1.06637,-0.80367 -2.06216,-1.78594 z"
           id="path2397" /><path
           style="fill:#103270;stroke-width:0.264583"
           d="m -108.54057,160.03622 c 0,-0.5033 0.63334,-1.31357 2.44739,-3.13109 3.73247,-3.7396 5.69933,-7.43285 6.675306,-12.53447 l 0.39954,-2.08844 -0.13278,1.71034 c -0.45701,5.88666 -3.855666,12.33982 -8.390586,15.93154 l -0.99887,0.79113 z"
           id="path2399" /><path
           style="fill:#103270;stroke-width:0.264583"
           d="m -108.96753,165.75601 c 0.23483,-0.4541 0.42696,-1.3078 0.42696,-1.89711 0,-0.58931 0.107,-1.07147 0.23778,-1.07147 0.44092,0 4.32426,-3.81231 5.60014,-5.49771 1.72662,-2.2808 3.529076,-5.85518 4.307276,-8.54152 0.52673,-1.81829 1.22778,-5.96844 1.23113,-7.28821 5.3e-4,-0.16119 -2.66797,-1.82656 -5.929726,-3.70082 l -5.93049,-3.40775 -0.17675,-1.41469 c -0.0972,-0.77808 -0.11718,-1.47426 -0.0444,-1.54708 0.13714,-0.13714 14.390386,8.02742 14.553866,8.33676 0.17944,0.33954 -0.33211,5.15466 -0.73651,6.93269 -1.1728,5.15641 -3.67349,10.05701 -7.217406,14.14395 -1.56157,1.80084 -4.2969,4.22613 -5.93899,5.26583 l -0.80987,0.51277 z"
           id="path2401" /><path
           style="fill:#49afe0;fill-opacity:1;stroke-width:0.264583"
           d="m -113.84062,165.18832 c -2.17882,-1.63671 -5.64516,-5.23355 -7.08025,-7.34681 -3.25875,-4.79871 -5.61137,-11.81183 -5.61137,-16.72737 v -1.49564 l 7.06555,-4.0921 c 3.88605,-2.25065 7.13196,-4.12235 7.21313,-4.15932 0.0812,-0.037 0.0866,0.60583 0.0121,1.42846 l -0.13553,1.49568 -5.92136,3.44404 -5.92136,3.44405 0.17168,2.05862 c 0.59306,7.11128 3.96135,13.68849 9.36242,18.28185 1.56355,1.32972 1.76596,1.60702 1.69144,2.31737 -0.0514,0.49031 0.13937,1.16934 0.48629,1.73067 0.31401,0.50807 0.53145,0.92263 0.4832,0.92123 -0.0482,-0.001 -0.8654,-0.58672 -1.8159,-1.30073 z"
           id="path2403" /><path
           style="fill:#103270;stroke-width:0.264583"
           d="m -111.52749,165.89536 -0.73796,-1.38814 0.26946,-12.56771 c 0.25279,-11.79026 0.24116,-12.58761 -0.18808,-12.88941 -0.25165,-0.17694 -0.6152,-0.45777 -0.80788,-0.62406 -0.38239,-0.33002 -3.51864,-0.21831 -4.38942,0.15634 -0.37779,0.16254 -0.45351,0.13226 -0.29809,-0.11921 0.36966,-0.59812 2.35732,-1.32854 3.63156,-1.33451 0.68175,-0.003 1.54495,-0.12193 1.91823,-0.26385 0.67847,-0.25796 0.67868,-0.25905 0.67868,-3.55943 0,-1.84271 -0.12893,-3.58435 -0.2918,-3.94182 -0.42873,-0.94097 0.0853,-1.76572 1.10053,-1.76572 0.97874,0 1.53431,0.93474 1.07057,1.80123 -0.16836,0.31458 -0.2918,1.95446 -0.2918,3.87647 v 3.33124 l 0.67868,0.25803 c 0.37328,0.14192 1.23648,0.26065 1.91823,0.26385 1.27424,0.006 3.2619,0.73639 3.63156,1.33451 0.15542,0.25147 0.0797,0.28175 -0.29809,0.11921 -0.87078,-0.37465 -4.00703,-0.48636 -4.38942,-0.15634 -0.19268,0.16629 -0.55623,0.44712 -0.80788,0.62406 -0.42923,0.3018 -0.44087,1.09915 -0.18808,12.88941 l 0.26946,12.56771 -0.73796,1.38814 c -0.40588,0.76347 -0.79749,1.38814 -0.87025,1.38814 -0.0728,0 -0.46437,-0.62467 -0.87025,-1.38814 z"
           id="path2405" /></g></g></g></svg>
